<svg id="eA7mYQ0vTVF1" xmlns="http://www.w3.org/2000/svg" xmlns:xlink="http://www.w3.org/1999/xlink" viewBox="0 0 500 500" shape-rendering="geometricPrecision" text-rendering="geometricPrecision"><g id="eA7mYQ0vTVF2" transform="matrix(.810275 0 0 0.831127 69.759726 43.609214)"><g><path d="M89.05,437.1c87.26,46,228.74,46,316,0s87.26-120.62,0-166.63-228.74-46-316,0-87.27,120.62,0,166.63Z" fill="#f5f5f5"/></g><g><polygon points="163.51,357.3 166.13,354.18 86.76,308.35 81.38,311.45 109.57,327.73 82.5,343.36 54.07,326.94 48.7,330.05 129.94,376.95 130.79,375.93 131.22,376.17 162.38,358.22 162.63,358.36 163.08,357.81 163.75,357.43 163.51,357.3" fill="#e0e0e0"/><ellipse rx="44.22" ry="21.07" transform="translate(357.41 381.96)" fill="#e0e0e0"/><ellipse rx="44.22" ry="21.07" transform="translate(223.83 425.39)" fill="#e0e0e0"/><path d="M392.67,408.28c8.58,5,22.49,5,31.07,0s8.58-13,0-17.94-22.49-4.95-31.07,0-8.58,12.99,0,17.94Z" fill="#e0e0e0"/><ellipse rx="21.97" ry="12.68" transform="translate(89.84 404.57)" fill="#e0e0e0"/></g><g><path d="M131,189.48L86.48,310.75v0c-.146513.367243-.424601.666722-.78.84-1.275273.650051-2.784727.650051-4.06,0-.41152-.193434-.715679-.55989-.83-1-.020112-.109081-.020112-.220919,0-.33.010557-.283223.064519-.563148.16-.83L125.64,187.5c.340193-.987802,1.188654-1.71391,2.217152-1.897424s2.075723.204347,2.736552,1.013538.831618,1.912798.446296,2.883886l-.04-.02Z" fill="#37474f"/><line x1="71.48" y1="272.92" x2="116.16" y2="298.72" fill="none" stroke="#37474f" stroke-width="6" stroke-miterlimit="10"/><line x1="103.97" y1="254.16" x2="148.66" y2="279.96" fill="none" stroke="#37474f" stroke-width="6" stroke-miterlimit="10"/><path d="M94.68,181.15l23.83-13.76c1.784292-1.155885,4.031723-1.332232,5.974463-.468792s3.317854,2.649807,3.655537,4.748792L167.7,356.75c.031372.124294.048151.251821.05.38.014944.132915.014944.267085,0,.4-.115582.439462-.419348.805446-.83,1-1.275273.650051-2.784727.650051-4.06,0-.355568-.185766-.635017-.489976-.79-.86-.003545-.056611-.003545-.113389,0-.17L122.52,172.87c-.027263-.272676-.160047-.523889-.37-.7-.270012-.039842-.544576.032411-.76.2L97.55,186.13" fill="#455a64"/><path d="M133.57,358l-14.51-8.38c-.513337-.331961-.836758-.889584-.87-1.5v-.34c.029985-.611383.354207-1.170385.87-1.5l34.82-20.11c.54632-.279529,1.19368-.279529,1.74,0l14.51,8.38c.51213.33311.835162.890061.87,1.5v.35c-.034838.609939-.35787,1.16689-.87,1.5L135.31,358c-.54632.279529-1.19368.279529-1.74,0Z" fill="#ba68c8"/><path d="M118.45,346.94c-.160031.259156-.249651.555592-.26.86v.34c.033242.610416.356663,1.168039.87,1.5L133.57,358c.267382.142954.566848.215238.87.21v-2.05l-15.99-9.22Z" opacity="0.1"/><path d="M134.44,356.18v2.05c.303152.005238.602618-.067046.87-.21l17.41-10l17.41-10.05c.51213-.33311.835162-.890061.87-1.5v-.35c-.010693-.30122-.100354-.594342-.26-.85l-36.3,20.91Z" opacity="0.15"/><path d="M127.28,328.59l-14.52-8.38c-.505952-.337546-.824317-.892834-.86-1.5v-.35c.035683-.607166.354048-1.162454.86-1.5l34.83-20.1c.54282-.279415,1.18718-.279415,1.73,0l14.52,8.38c.509526.334192.829017.891443.86,1.5v.36c-.026094.609983-.346773,1.169307-.86,1.5L129,328.59c-.540118.275996-1.179882.275996-1.72,0Z" fill="#ba68c8"/><path d="M112.15,317.51c-.155704.256829-.241863.549769-.25.85v.35c.035683.607166.354048,1.162454.86,1.5l14.52,8.38c.266895.144226.5667.216593.87.21v-2.05l-16-9.24Z" opacity="0.1"/><path d="M128.15,326.75v2.05c.299977.005315.596232-.067027.86-.21l17.42-10l17.41-10.06c.513227-.330693.833906-.890017.86-1.5v-.34c-.006737-.30045-.093-.593745-.25-.85l-36.3,20.91Z" opacity="0.15"/><path d="M121,299.16l-14.52-8.38c-.51213-.33311-.835162-.890061-.87-1.5v-.35c.034838-.609939.35787-1.16689.87-1.5l34.83-20.1c.54282-.279415,1.18718-.279415,1.73,0l14.51,8.38c.513337.331961.836758.889584.87,1.5v.34c-.029985.611383-.354207,1.170385-.87,1.5l-34.82,20.11c-.54282.279415-1.18718.279415-1.73,0Z" fill="#ba68c8"/><path d="M105.86,288.08c-.158378.256234-.247934.549012-.26.85v.35c.034838.609939.35787,1.16689.87,1.5l7.26,4.19l7.26,4.19c.263263.144277.55987.216704.86.21v-2.06l-15.99-9.23Z" opacity="0.1"/><path d="M121.85,297.31v2.06c.3033.006593.603105-.065774.87-.21l17.41-10.05l17.41-10.06c.515793-.329615.840015-.888617.87-1.5v-.34c-.012838-.30262-.098605-.597658-.25-.86l-36.31,20.96Z" opacity="0.15"/><path d="M114.69,269.73l-14.51-8.38c-.51213-.33311-.835162-.890061-.87-1.5v-.35c.034838-.609939.35787-1.16689.87-1.5L135,237.9c.54282-.279415,1.18718-.279415,1.73,0l14.52,8.38c.515793.329615.840015.888617.87,1.5v.34c-.033242.610416-.356663,1.168039-.87,1.5l-34.83,20.11c-.543996.274519-1.186004.274519-1.73,0Z" fill="#ba68c8"/><path d="M115.56,267.88v2.06c.299977.005315.596232-.067027.86-.21l17.42-10.05l17.41-10.06c.513337-.331961.836758-.889584.87-1.5v-.34c-.010349-.304408-.099969-.600844-.26-.86l-36.3,20.96Z" opacity="0.15"/><path d="M99.56,258.65c-.151323.258741-.237145.550533-.25.85v.35c.034838.609939.35787,1.16689.87,1.5l14.51,8.38c.266895.144226.5667.216593.87.21v-2.06l-16-9.23Z" opacity="0.1"/><path d="M108.4,240.3L84.27,226.37c-.509526-.334192-.829017-.891443-.86-1.5v-.34c.03257-.60809.351679-1.164674.86-1.5l34.83-20.11c.54282-.279415,1.18718-.279415,1.73,0L145,216.85c.509526.334192.829017.891443.86,1.5v.34c-.035683.607166-.354048,1.162454-.86,1.5L110.13,240.3c-.546837.26231-1.183163.26231-1.73,0Z" fill="#ba68c8"/><path d="M109.26,238.45v2.05c.302413.009664.602166-.059245.87-.2l17.41-10.06L145,220.19c.505952-.337546.824317-.892834.86-1.5v-.35c-.008137-.300231-.094296-.593171-.25-.85l-36.35,20.96Z" opacity="0.15"/><path d="M83.66,223.67c-.151395.262342-.237162.55738-.25.86v.34c.030983.608557.350474,1.165808.86,1.5L108.4,240.3c.264542.13993.56086.208841.86.2v-2.05l-25.6-14.78Z" opacity="0.1"/><path d="M98.55,208.24L54,329.37v0l-.1.27c-.171283.294932-.420361.537092-.72.7-1.281047.640594-2.788953.640594-4.07,0-.407292-.198856-.709571-.563048-.83-1-.009993-.109773-.009993-.220227,0-.33.012089-.287204.069462-.570696.17-.84l44.7-121.91c.340193-.987802,1.188654-1.71391,2.217152-1.897424s2.075723.204347,2.736552,1.013538.831618,1.912798.446296,2.883886v-.02Z" fill="#37474f"/><path d="M97.55,186.13c-1.40243.953613-2.142662,2.620102-1.91,4.3L135.21,375.5c.039566.146736.059738.298023.06.45.010002.106432.010002.213568,0,.32-.118044.438192-.42105.80326-.83,1-1.275273.650051-2.784727.650051-4.06,0-.34808-.181417-.625983-.47339-.79-.83l-.05-.24L90,191.64c-.730918-4.119752,1.113034-8.270624,4.66-10.49" fill="#455a64"/></g><g><g><path d="M108.59,373.06l-36.7-.5-.32,30v0c0,2.72,1.74,5.45,5.3,7.56c7.12,4.21,18.74,4.34,25.95.28c3.64-2.05,5.46-4.77,5.46-7.51l.31-29.83Z" fill="#37474f"/><path d="M77.35,365.13c-7.21,4.06-7.28,10.77-.16,15s18.74,4.34,26,.28s7.28-10.77.16-15-18.79-4.34-26-.28Z" fill="#455a64"/><path d="M107,372.94c-.007711.487694-.095549.970804-.26,1.43-.56,1.72-2.06,3.32-4.4,4.64-3.775484,1.934623-7.979723,2.880748-12.22,2.75-4.235876.048093-8.414094-.984416-12.14-3-1.930899-.977358-3.44117-2.622665-4.25-4.63-.175171-.494409-.263144-1.015485-.26-1.54c0-2.24,1.68-4.4,4.65-6.05c3.759836-1.958797,7.963157-2.909713,12.2-2.76c4.243915-.06269,8.432224.97061,12.16,3c2.96,1.74,4.52,3.92,4.52,6.16Z" fill="#263238"/><path d="M106.76,374.37c-.56,1.72-2.06,3.32-4.4,4.64-3.775484,1.934623-7.979723,2.880748-12.22,2.75-4.235876.048093-8.414094-.984416-12.14-3-1.930899-.977358-3.44117-2.622665-4.25-4.63.832205-2.036022,2.39909-3.684999,4.39-4.62c3.762353-1.952857,7.963223-2.906661,12.2-2.77c4.242785-.052833,8.428639.979861,12.16,3c1.930773.980572,3.443258,2.624423,4.26,4.63Z" fill="#ba68c8"/><path d="M98.07,384.29c.8-.46,1.45-.07,1.44.85-.076238,1.023697-.63748,1.949189-1.51,2.49-.81.46-1.45.07-1.44-.85.073025-1.024723.635085-1.951564,1.51-2.49Z" fill="#263238"/><path d="M71.83,377.83c-2,4-6,13.44-.82,17.29.22.16.42.3.64.44v1.92c-.52-.32-1.06-.68-1.58-1.06-7.79-5.77,1-20.59,1.38-21.21.096889-.166224.25471-.288176.44-.34l-.06,2.96Z" fill="#e0e0e0"/><path d="M98.75,386.34c-.22.46-5.89,11.3-15.22,13.48-1.050987.254391-2.128665.381967-3.21.38-3.097053-.057752-6.112716-1.001664-8.69-2.72v-1.92c3.85,2.68,7.73,3.6,11.52,2.72c8.61-2,14.12-12.58,14.16-12.68.098006-.188425.266918-.330145.469506-.393922s.422222-.044379.610494.053922c.195954.090125.345842.257366.414048.461984s.04864.428344-.054048.618016Z" fill="#e0e0e0"/></g></g><g><path d="M174.93,281.05l-3.8-2.19c-1.27461-.836103-2.076303-2.227931-2.16-3.75v-173.23c.08052-1.523011.882981-2.916173,2.16-3.75L296.79,25.58c1.360966-.689591,2.969034-.689591,4.33,0l3.79,2.19c1.28083.831598,2.087221,2.22513,2.17,3.75v173.24c-.082779,1.52487-.88917,2.918402-2.17,3.75L179.26,281.05c-1.360966.689591-2.969034.689591-4.33,0Z" fill="#ba68c8"/><path d="M307.05,31.16c-.15-1.12-1.06-1.53-2.14-.9L179.25,102.81c-.6372.403857-1.163183.96078-1.53,1.62l-8.12-4.69c.363641-.66154.890302-1.219181,1.53-1.62L296.78,25.57c1.360966-.689591,2.969034-.689591,4.33,0l3.8,2.19c1.171254.770728,1.951655,2.010618,2.14,3.4Z" opacity="0.4" fill="#fff"/><path d="M178.75,281.27c-1.25175.462208-2.639409.382499-3.83-.22l-3.79-2.19c-1.28083-.831598-2.087221-2.22513-2.17-3.75v-173.24c.029609-.752726.249819-1.485615.64-2.13l8.12,4.69c-.387479.644977-.604294,1.378019-.63,2.13v173.24c0,1.2.71,1.76,1.66,1.47Z" opacity="0.1"/><path d="M316.89,167.52v0c-.327091-.14875-.708842-.110575-1,.1l-5.1,3.38c-.680172.42009-1.571708.215037-2-.46-.306177-.425028-.640245-.829251-1-1.21-.607827-.639056-.832251-1.551967-.59-2.4l8-5.1-6-3.46v0c-.122767-.069496-.253798-.123253-.39-.16l-3.82-.85c-.858421-.152285-1.720725.246929-2.16,1l-3.58,6.83c-.49225.797222-1.267205,1.379331-2.17,1.63l-.22.07c.153987-.519367.261082-1.051499.32-1.59l-6-3.48v0c-.389941-.20707-.869531-.133912-1.18.18l-5.71,4.49c-.696509.610854-1.094101,1.493582-1.09,2.42l.34,5.44c-.001412.95035-.314008,1.87409-.89,2.63-.93,1.12-1.82,2.29-2.65,3.51-.553546.725798-1.407421,1.160097-2.32,1.18l-3.68-.18c-.889071.002141-1.702822.499647-2.11,1.29l-3.45,7.74c-.307375.679683-.052951,1.481764.59,1.86v0l4.07,2.35c.134685.333039.166044.698899.09,1.05-.275409,1.2213-.485706,2.456375-.63,3.7-.149378.943008-.581819,1.818353-1.24,2.51l-5.06,4.65c-.642667.660373-.954717,1.574496-.85,2.49l.95,5.52c.02921.307647.199017.584507.46.75v0l6,3.48.08-6.91c.680172-.42009,1.571708-.215037,2,.46.302852.427584.637109.832035,1,1.21.605934.640031.833457,1.550121.6,2.4L274,223c-.234513.569431-.023056,1.224947.5,1.55v0l6,3.48l1.64-4.5l2.33-5.78c.488361-.796575,1.260016-1.378889,2.16-1.63.799005-.21016,1.583907-.470681,2.35-.78.346147-.160809.745474-.161377,1.092078-.001554s.605461.463887.707922.831554l1.29,4.27c.073334.276974.248274.516178.49.67v0l6.05,3.48-1.06-6.68l1.85-1.46c.696084-.610276,1.090622-1.494334,1.08-2.42l-.34-5.44c-.000812-.950716.312019-1.875149.89-2.63.94-1.12,2.35-1.72,3.18-2.93.47-.69,1-1.8,1.8-1.76l3.67.18c.889715.000142,1.70456-.498033,2.11-1.29l3.46-7.75c.159963-.360294.168513-.769739.02373-1.136396s-.430764-.6598-.79373-.813604l-3-1.27c-.746647-.364436-1.15644-1.184021-1-2c.27864-1.221143.492274-2.456213.64-3.7.140995-.9436.570665-1.820407,1.23-2.51l5.07-4.65c.458597-.470253.750185-1.07802.83-1.73l4.6-3.58-5.96-3.5Zm-23,35.71c-6.2,4.86-12.12,3.54-13.24-3s3.94-14.77,10.13-19.64s11.17-4.5,12.29,2-2.97,15.77-9.16,20.64h-.02Z" fill="#263238"/><path d="M271.3,202l-5,4.6c-.390685.395316-.658181.895568-.77,1.44l7.43,4.3v-.4c.680172-.42009,1.571708-.215037,2,.46v0l7.17-4.14L271.3,202Z" fill="#455a64"/><path d="M284.06,188.06c.56823-.878441,1.182417-1.726287,1.84-2.54l-7.14-4.12c-.315941.137402-.655565.212119-1,.22l-3.68-.18c-.556989-.009385-1.097983.18637-1.52.55l11,6.34.5-.27Z" fill="#455a64"/><path d="M322.89,171c-.330616-.143035-.712612-.097195-1,.12l-5.06,3.33c-.681103.414389-1.568379.210315-2-.46-.300545-.429346-.634944-.833969-1-1.21-.609558-.642175-.833977-1.558868-.59-2.41l.48-1.29l2.17-1.43c.302538-.230211.709445-.268964,1.05-.1v0l5.95,3.45Z" fill="#455a64"/><path d="M307.94,169.5c-.06-.06-.11-.14-.17-.21-.607827-.639056-.832251-1.551967-.59-2.4l8-5.1-6-3.46v0c-.122767-.069496-.253798-.123253-.39-.16l-3.82-.85c-.858421-.152285-1.720725.246929-2.16,1l-3.58,6.83c-.208112.359104-.487102.672118-.82.92l8.1,4.68l1.43-1.25Z" fill="#455a64"/><path d="M283.39,167.94l7.43,4.29l6.12-5.6c.114447-.450438.197975-.908171.25-1.37l-6-3.48v0c-.401059-.202243-.887757-.112265-1.19.22l-5.71,4.49c-.434049.386011-.746702.889729-.9,1.45Z" fill="#455a64"/><path d="M324.32,177.28l-.95-5.52c-.009272-.352874-.221781-.668552-.545231-.809927s-.699478-.082939-.964769.149927l-5.06,3.33c-.680172.42009-1.571708.215037-2-.46-.300358-.426366-.634787-.82768-1-1.2-.605883-.644118-.833155-1.556993-.6-2.41l2.58-7c.144692-.354515.123073-.755188-.058924-1.092076s-.505256-.574605-.881076-.647924l-3.81-.85c-.858816-.155346-1.722804.244648-2.16,1l-3.59,6.83c-.488361.796575-1.260016,1.378889-2.16,1.63-.799005.21016-1.583907.470681-2.35.78-.345745.164498-.746698.16691-1.094396.006582s-.60621-.466825-.705604-.836582l-1.29-4.27c-.085954-.334732-.338649-.601358-.668291-.705135s-.689504-.029991-.951709.195135l-5.71,4.49c-.696084.610276-1.090622,1.494334-1.08,2.42l.34,5.44c-.001412.95035-.314008,1.87409-.89,2.63-.94,1.12-1.82,2.29-2.66,3.51-.547614.732879-1.405192,1.169061-2.32,1.18l-3.67-.18c-.879676.018564-1.676667.52294-2.07,1.31l-3.51,7.8c-.176279.365602-.19355.787819-.04772,1.166597s.44178.680405.81772.833403l3,1.27c.746647.364436,1.15644,1.184021,1,2-.27864,1.221143-.492274,2.456213-.64,3.7-.139081.944195-.569023,1.821555-1.23,2.51l-5.07,4.65c-.642667.660373-.954717,1.574496-.85,2.49l1,5.53c.012984.351071.226892.663312.549576.802216s.696503.079658.960424-.152216l5.06-3.33c.681103-.414389,1.568379-.210315,2,.46.306177.425028.640245.829251,1,1.21.609558.642175.833977,1.558868.59,2.41l-2.58,7c-.144692.354515-.123073.755188.058924,1.092076s.505256.574605.881076.647924l3.82.85c.858421.152285,1.720725-.246929,2.16-1l3.58-6.83c.494453-.795208,1.268526-1.376654,2.17-1.63.800309-.205751,1.585499-.466367,2.35-.78.346147-.160809.745474-.161377,1.092078-.001554s.605461.463887.707922.831554l1.29,4.27c.087542.331025.338364.594246.664783.697645s.683048.032602.945217-.187645l5.71-4.49c.695427-.611653,1.092786-1.493862,1.09-2.42l-.34-5.44c-.003831-.951209.309321-1.876591.89-2.63.93-1.12,1.82-2.29,2.65-3.51.553546-.725798,1.407421-1.160097,2.32-1.18l3.68.18c.889071-.002141,1.702822-.499647,2.11-1.29l3.45-7.74c.176279-.365602.19355-.787819.04772-1.166597s-.44178-.680405-.81772-.833403l-3-1.27c-.751854-.359157-1.163787-1.183023-1-2c.275409-1.2213.485706-2.456375.63-3.7.147009-.940831.579927-1.813649,1.24-2.5l5.06-4.66c.661846-.684721.968462-1.637816.83-2.58Zm-24.4,29.42c-6.19,4.87-12.12,3.54-13.24-3s3-15.73,9.18-20.6s12.12-3.54,13.24,3-2.99,15.73-9.18,20.6Z" fill="#37474f"/><path d="M288.3,114.07l-5.92-3.41v0c-.288461-.149441-.631539-.149441-.92,0l-10.7,4.82c-.344337.164557-.744143.166882-1.09037.006341s-.602761-.467202-.69963-.836341c-.575782-1.856527-1.37497-3.63623-2.38-5.3-.44327-.794419-.502121-1.747063-.16-2.59l7.13-14.38c.360715-.76026.083417-1.670142-.64-2.1l-7.73-4.46c-.729097-.417426-1.656596-.204057-2.13.49l-8.9,13.39c-.559754.720992-1.417307,1.147928-2.33,1.16-1.035348-.027134-2.071312.019652-3.1.14v-9.77l-5.94-3.43v0c-.325329-.151641-.706975-.117293-1,.09l-12,6.94c-.778428.510796-1.302206,1.329198-1.44,2.25l-1.2,13.37c-.135967.94639-.574469,1.823392-1.25,2.5-2.382272,2.204626-4.61395,4.566596-6.68,7.07-.594591.655011-1.509933.914875-2.36.67l-7.72-2.7c-.820504-.255391-1.70974.078073-2.16.81l-8.84,15.3c-.404546.760108-.244191,1.697571.39,2.28l6.19,5.34c.644166.610115.877941,1.537421.6,2.38-1.138171,3.036212-2.067012,6.146827-2.78,9.31-.247342.923-.78779,1.74069-1.54,2.33l-11,7.73c-.730582.57732-1.178444,1.440275-1.23,2.37v13.88c-.023551.35172.13982.689858.43.89v0l5.92,3.42l8.79-4.17c.330138.686115.697347,1.353768,1.1,2c.44327.794419.502121,1.747063.16,2.59l-7.13,14.38c-.366428.754417-.092317,1.663769.63,2.09l7.74,4.47c.731583.415459,1.659696.197592,2.13-.5l8.89-13.36c.551746-.725346,1.408676-1.153811,2.32-1.16c1.946361.041725,3.890589-.153034,5.79-.58.365919-.103424.758975-.036065,1.069577.183298s.505526.567263.530423.946702l1.18,11.67c.007264.332867.17972.640288.46.82v0l5.91,3.4l7.1-10.42c.775565-.511907,1.295805-1.330466,1.43-2.25l1.2-13.37c.152563-.879633.72857-1.627695,1.54-2c3.527048-1.524236,6.705404-3.753169,9.34-6.55.621413-.631382,1.536223-.876352,2.39-.64l4.74,1.67c.821201.262425,1.715655-.067327,2.17-.8l8.83-15.3c.406991-.757913.250801-1.695053-.38-2.28L269,151.39c-.636474-.622578-.888632-1.539517-.66-2.4.87773-3.628014,1.247925-7.360253,1.1-11.09.017399-.920378.437797-1.786763,1.15-2.37l11-7.73c.725318-.576109,1.169377-1.435108,1.22-2.36l5.25-6.29.24-5.08Zm-52.49,55c-11.22,6.47-18.19,1.88-18.19-11.07s9.27-28.82,20.48-35.29s18-1.77,18,11.18-9.1,28.72-20.29,35.2v-.02Z" fill="#263238"/><path d="M271.19,97.15l2.36-4.75c.360715-.76026.083417-1.670142-.64-2.1l-7.73-4.46c-.729097-.417426-1.656596-.204057-2.13.49L254.16,99.7c-.163519.22156-.362935.414216-.59.57l9.95,5.74l7.67-8.86Z" fill="#455a64"/><path d="M201.86,154.84c-.23334.343558-.520326.647424-.85.9l-11,7.73c-.292642.229063-.540176.510506-.73.83l6.71,3.87l14.57-8.29-8.7-5.04Z" fill="#455a64"/><path d="M208.53,117.9c-.631517.023668-1.209417.361402-1.54.9l-8.84,15.3c-.185317.342132-.25545.734874-.2,1.12l7.62,4.4l12.1-16.37-9.14-5.35Z" fill="#455a64"/><path d="M228.6,96.28l9.42,5.44l10.71-6.18v-4.31l-5.94-3.43v0c-.325329-.151641-.706975-.117293-1,.09l-12,6.94c-.532189.35407-.946551.858964-1.19,1.45Z" fill="#455a64"/><path d="M288.72,128.85v-13.85c.055778-.346701-.09752-.693789-.391354-.886077s-.673265-.193825-.968646-.003923l-10.7,4.83c-.34293.164639-.741603.166887-1.086368.006126s-.599312-.467601-.693632-.836126c-.583481-1.855266-1.385795-3.634457-2.39-5.3-.44327-.794419-.502121-1.747063-.16-2.59l7.13-14.38c.36247-.757762.08973-1.666898-.63-2.1l-7.74-4.47c-.732309-.410367-1.656781-.193355-2.13.5l-8.89,13.37c-.55494.72558-1.416532,1.15083-2.33,1.15-1.943244-.033192-3.88354.164865-5.78.59-.367027.103077-.760944.035827-1.072984-.183182s-.509191-.566608-.537016-.946818L249.18,92c.010815-.348135-.180216-.671257-.490453-.829585s-.683979-.123435-.959547.089585l-12,6.94c-.777904.506721-1.301968,1.321932-1.44,2.24l-1.2,13.38c-.138033.945742-.576226,1.822128-1.25,2.5-2.382272,2.204626-4.61395,4.566596-6.68,7.07-.594214.655654-1.51187.912287-2.36.66l-7.72-2.69c-.818193-.257266-1.70678.07184-2.16.8l-8.84,15.31c-.404546.760108-.244191,1.697571.39,2.28l6.19,5.33c.643696.614571.877093,1.544269.6,2.39-1.138171,3.036212-2.067012,6.146827-2.78,9.31-.247342.923-.78779,1.74069-1.54,2.33l-11,7.73c-.730582.57732-1.178444,1.440275-1.23,2.37v13.88c-.045384.345491.112745.686135.405931.874459s.668738.190482.964069.005541l10.7-4.82c.341553-.164827.738896-.168387,1.083348-.009707s.599965.462994.696652.829707c.577258,1.860798,1.379881,3.64403,2.39,5.31.44327.794419.502121,1.747063.16,2.59L204,202.29c-.366428.754417-.092317,1.663769.63,2.09l7.74,4.47c.731583.415459,1.659696.197592,2.13-.5L223.37,195c.557574-.718278,1.410833-1.144908,2.32-1.16c1.946959.043182,3.891769-.154994,5.79-.59.366776-.099255.758691-.030427,1.069701.187859s.508964.563467.540299.942141l1.17,11.68c-.014881.349936.174607.67672.485707.837634s.687297.126725.964293-.087634l12-7c.779799-.503118,1.301849-1.320875,1.43-2.24l1.21-13.38c.138026-.942835.57638-1.816037,1.25-2.49c2.379173-2.204617,4.607525-4.566603,6.67-7.07.591951-.659255,1.509949-.919873,2.36-.67l7.72,2.69c.821201.262425,1.715655-.067327,2.17-.8l8.84-15.31c.402986-.757048.24255-1.690863-.39-2.27L272.8,153c-.644166-.610115-.877941-1.537421-.6-2.38c1.130451-3.042206,2.059131-6.155623,2.78-9.32.249988-.921807.789924-1.738723,1.54-2.33l11-7.73c.725468-.586721,1.162786-1.457712,1.2-2.39Zm-47,43.65c-11.22,6.47-20.31,1.22-20.31-11.73s9.09-28.7,20.31-35.17s20.28-1.23,20.28,11.72-9.07,28.68-20.28,35.18Z" fill="#37474f"/><path d="M288.3,114.07v0c-.296451-.160019-.653549-.160019-.95,0l-10.7,4.82c-.341553.164827-.738896.168387-1.083348.009707s-.599965-.462994-.696652-.829707c-.398576-1.295838-.910556-2.554036-1.53-3.76l8.1-3.65c.291142-.152919.638858-.152919.93,0v0l5.93,3.41Z" fill="#455a64"/></g><g><path d="M372.54,374.67v-1.14c-.45,1.34-2.53,7.08-5.69,10-2.51,2.29-5.93,4.94-6.81,7.49s4.77,3.54,7.11,3.13c2.73-.48,6.25-2,8.17-4.39c1.35-1.65,2.21-3.62,3.17-4.92s3.19-2.76,3.71-4.27c.29-.83-.05-2.64-.46-4.18s-.76-3-1.25-2.82v.87c-1.138144.895997-2.551791,1.369569-4,1.34-1.14.01-3.96-.22-3.95-1.11Z" fill="#263238"/><path d="M364.58,385.51c.78-.7,1.56-1.38,2.27-2c2.21-2,3.89-5.42,4.85-7.75.551211-1.328326.836595-2.751851.84-4.19v-4.57h7.95v7.38v0v.2v0c-.38,1.65-4,6.05-6.1,8.92-1.4,1.92-4,4.37-7.2,4.79-3.03.43-4.56-.51-2.61-2.78Z" fill="#ffa8a7"/><path d="M341.5,366.83v-1.14c-.45,1.33-2.53,7.08-5.69,10-2.51,2.29-5.93,4.93-6.8,7.48s4.76,3.55,7.11,3.14c2.72-.49,6.25-2,8.16-4.39c1.35-1.66,2.21-3.62,3.18-4.93s3.18-2.75,3.7-4.26c.29-.83-.05-2.65-.45-4.18s-.77-2.95-1.25-2.82v.87c-1.140511.891605-2.552548,1.364637-4,1.34-1.15,0-3.97-.23-3.96-1.11Z" fill="#263238"/><path d="M333.54,377.66c.78-.69,1.56-1.37,2.27-2c2.21-2,3.89-5.42,4.85-7.75.557059-1.326539.84268-2.751246.84-4.19v-4.53h8v7.38v0v.2v0c-.39,1.65-4,6.05-6.11,8.92-1.39,1.92-4,4.36-7.19,4.79s-4.61-.55-2.66-2.82Z" fill="#ffa8a7"/><path d="M378.91,251c6.17,13.48-.22,60.94-.22,60.94.18,2.19,2.68,6.49,3.62,16.11c1.1,11.37-1.73,39.92-1.73,39.92-2.451876,1.415445-5.442903,1.535086-8,.32s-7.59-43-9-54.3c-1.25-9.87-3.64-31.56-3.64-31.56l-6.78,31.51c.990877,3.176606,1.71013,6.43164,2.15,9.73.64,6.65-5.8,37.61-5.8,37.61s-2.75,1-8,.24c0,0-2.28-41.08-2.88-49.09-1-13.46,2.56-55.43,5-63.4L378.91,251Z" fill="#37474f"/><path d="M359.89,282.43l-2-12.52c0,0-8.47-1.75-12.31-5.36c2.648566,3.105164,6.112138,5.408439,10,6.65l2.24,9.64L353.91,310l5.98-27.57Z" fill="#263238"/><path d="M346.85,242.51c4.67-15.54,10.62-38.68,8.38-38.68s-5.7-.21-8.23,2.33c-5,5-5.89,14.28-6.94,19.58s-1.79,9.47-3.46,17.32c-1.26,6-2.81,13.17-5.06,17.77-.42031.822798-1.133998,1.45798-2,1.78-2.26.92-3.3,2.09-5.11,3.43-1.42,1-2.5,1.18-2.41,1.61.321214.99442,1.353853,1.573919,2.37,1.33c1.092419-.223888,2.153547-.579836,3.16-1.06-1.022742,1.719285-2.316005,3.262421-3.83,4.57-3.46,3-4,5.13,1.79,6.18c3.61.66,6.88-1.07,11-8.56c1.563318-2.72923,2.930115-5.566419,4.09-8.49c2.76-7.62,4.84-14.41,6.25-19.11Z" fill="#ffa8a7"/><path d="M368,204.2v0c7.91.54,8.46,4.36,10.44,8.54c1.452886,3.216623,1.589279,6.874101.38,10.19l-5.52,15.94c0,0,2.59,6.24,5.58,12.13-13.83,7.72-31.1,3.67-35.26-2-.17-1.19.89-10.53,1.55-16.63-2.43-6.12-3.08-10-2.05-14c1.91-7.5,9.32-14.8,12.59-14.53l12.29.36Z" fill="#ba68c8"/><path d="M360.43,197.64h3.07c8.922636-.005516,16.154484-7.237364,16.16-16.16v0c.000002-8.976246-7.273755-16.25448-16.25-16.26h-2.9c-8.976245.00552-16.250002,7.283754-16.25,16.26v0c.00552,8.926539,7.243459,16.160002,16.17,16.16Z" fill="#263238"/><path d="M388.32,206.16v0c-2.532817,0-4.961897-1.006158-6.75287-2.79713s-2.79713-4.220053-2.79713-6.75287v-20.45v0c2.532817,0,4.961897,1.006158,6.75287,2.79713s2.79713,4.220053,2.79713,6.75287v20.45Z" fill="#263238"/><path d="M380.52,172.53l-2.4,3.85c.494259.343283,1.107563.469117,1.697065.348194s1.103738-.478048,1.422935-.988194c.65715-1.090355.339897-2.504777-.72-3.21Z" fill="#263238"/><path d="M350.08,172.38c-1.87,1.11-4.18,5.81-4,15.67.2,8.35,2.9,10.41,4.26,11s4,.23,6.54-.19v5c0,0-3.53,4.09-3.31,6.39s5.09,2.85,8.39.6c2.138193-1.539478,3.97251-3.46195,5.41-5.67v-12.1c.541198.664836,1.326524,1.084724,2.179969,1.165557s1.703638-.184149,2.360031-.735557c2.81-1.87,2.92-6.49,1.28-8.15s-5.16-1.14-5.82,1.16c0,0-4.07.14-9.48-2.83-4.253185-2.314159-7.152545-6.512848-7.81-11.31Z" fill="#ffa8a7"/><path d="M356.39,186c-.019185.283928.075524.563802.263183.777734s.45281.344296.736817.362266c.576184.012531,1.06255-.425637,1.11-1c.017863-.375129-.165759-.731292-.481699-.934327s-.716197-.222094-1.05-.05-.550438.509198-.568301.884327l-.01-.04Z" fill="#263238"/><path d="M355.17,193l-2.44.78c.087791.33119.307681.611826.608256.776291s.655483.198342.981744.093709c.680039-.232979,1.055101-.96104.85-1.65Z" fill="#f28f8f"/><path d="M347.77,182.72l2.13-1.47c-.179994-.290782-.472087-.494318-.807208-.562478s-.683513.005108-.962792.202478c-.589803.41575-.748374,1.221822-.36,1.83Z" fill="#263238"/><path d="M348.26,185.19c-.017863.375129.165759.731292.481699.934327s.716197.222094,1.05.05.550438-.509198.568301-.884327c.021952-.284569-.071782-.565967-.259996-.78053s-.455-.34416-.740004-.35947c-.588923-.011308-1.078293.451368-1.1,1.04Z" fill="#263238"/><polygon points="353.39,184.59 353.23,190.91 349.9,189.88 353.39,184.59" fill="#f28f8f"/><path d="M356.92,198.87c2.68-.36,8.21-1.94,9.07-4.13-.340263,1.109374-1.018504,2.084781-1.94,2.79-1.65,1.42-7.13,3-7.13,3v-1.66Z" fill="#f28f8f"/><path d="M364.49,252.5c2.188872-.502026,4.083258-1.864574,5.255498-3.780049s1.523507-4.222388.974502-6.399951c-.05-.17-.1-.32-.14-.44-.390216-1.192263-1.550222-1.958696-2.8-1.85v0c1.790343-1.192861,3.031832-3.049697,3.45-5.16l1.68-8.43c0,0-3.12-9.9-2.8-13.3l7.94.46l1,.72c.842886,2.820537.765831,5.83619-.22,8.61l-5.52,15.94c0,0,2.59,6.24,5.58,12.13-9.097647,4.90738-19.87407,5.636749-29.55,2c5.03606.794828,10.177306.62515,15.15-.5Z" opacity="0.1"/><path d="M375.92,244.78c-2.92.78-11.81,1.83-12.47-4.41-.339517-4.970876-.339517-9.959124,0-14.93.404375-7.372808,3.060499-14.444171,7.61-20.26l.36-.44c0,0-1.29-1.05-4-.56-3.816269,3.879985-6.517477,8.715908-7.82,14-4-.58-9-1-12.34-1.26c1.555474-5.355035,4.988489-9.970256,9.67-13-1.132338-.437885-2.383434-.45915-3.53-.06-4.753386,2.889877-8.239462,7.468923-9.76,12.82-3.18,8.81-3.06,41.64-3,53.3l5.49-8.74h35c-.44-12.58-5.21-16.46-5.21-16.46Z" fill="#37474f"/><path d="M393,236.25c0,0-3.73-8-8.92-19.79-3.75-8.54-4.58-10.47-10.55-11.39l-2.1-.33c-2.83,9.29-.88,13.49,2.84,19.85l7.36,14.26c2.95-.58,11.47-1.71,11.37-2.6Z" fill="#ffa8a7"/><path d="M381.66,238.85c2.18,4.39,4,7.11,6.7,7.82s24.55.46,24.55.46v-8.28l-20.84-3.17-10.41,3.17Z" fill="#ffa8a7"/><path d="M425.43,329.76h-34.43v67.09c-.16,2.66,1.5,5.35,5,7.38c6.73,3.89,17.64,3.89,24.37,0c3.37-1.94,5.05-4.49,5.05-7v0l.01-67.47Z" fill="#ba68c8"/><path d="M421.81,323.66v0c-3.81-2.49-1.44-8.55-1.44-8.55h-24.37c0,0,2.3,6-1.44,8.55v0c-5.26,3.91-4.79,9.54,1.42,13.13c6.73,3.89,17.64,3.89,24.37,0c6.24-3.59,6.71-9.22,1.46-13.13Z" fill="#ba68c8"/><path d="M421.81,323.66v0c-3.81-2.49-1.44-8.55-1.44-8.55h-24.37c0,0,2.3,6-1.44,8.55v0c-5.26,3.91-4.79,9.54,1.42,13.13c6.73,3.89,17.64,3.89,24.37,0c6.24-3.59,6.71-9.22,1.46-13.13Z" opacity="0.05"/><path d="M419.71,318.1c.101043-1.023439.326024-2.030816.67-3h-24.38c.338704.969608.557005,1.977155.65,3c6.55,3.4,16.51,3.4,23.06,0Z" opacity="0.05"/><path d="M425.43,303.39h-2c-.877642-.928085-1.888759-1.720126-3-2.35-6.73-3.88-17.64-3.88-24.37,0-1.111241.629874-2.122358,1.421915-3,2.35h-2v4.69v0c0,2.55,1.68,5.09,5.05,7c6.73,3.89,17.64,3.89,24.37,0c3.37-1.94,5.05-4.48,5.05-7v0l-.1-4.69Z" fill="#ba68c8"/><path d="M396,310.42c6.73,3.89,17.64,3.89,24.37,0s6.73-10.18,0-14.07-17.64-3.88-24.37,0-6.72,10.19,0,14.07Z" fill="#ba68c8"/><path d="M396,310.42c6.73,3.89,17.64,3.89,24.37,0s6.73-10.18,0-14.07-17.64-3.88-24.37,0-6.72,10.19,0,14.07Z" opacity="0.4" fill="#fff"/><path d="M408.21,399.83v0c-.891127,0-1.745757-.353999-2.375879-.984121s-.984121-1.484752-.984121-2.375879v-47.93c0-.891127.353999-1.745757.984121-2.375879s1.484752-.984121,2.375879-.984121v0c1.85177.005511,3.350008,1.508221,3.35,3.36v47.93c.000008,1.851779-1.49823,3.354489-3.35,3.36Z" opacity="0.2"/><path d="M419.68,397.8v0c-1.61.59-2.91-.24-2.91-1.85v-48.82c.109568-1.78579,1.244651-3.346041,2.91-4v0c1.61-.58,2.91.24,2.91,1.85v48.83c-.110909,1.782958-1.246204,3.339599-2.91,3.99Z" opacity="0.2"/><path d="M396.73,397.8v0c1.61.59,2.91-.24,2.91-1.85v-48.82c-.109568-1.78579-1.244651-3.346041-2.91-4v0c-1.61-.58-2.91.24-2.91,1.85v48.83c.110909,1.782958,1.246204,3.339599,2.91,3.99Z" opacity="0.2"/><path d="M412.91,182.71l-7-4.06-4.44,20.89c0,0,4.44,7.25,4.44,11.94v89.12l4.65,5.44l2.39-1.38v-89.11c0-4.69,4.43-6.82,4.43-6.82l-4.47-26.02Z" fill="#e0e0e0"/><path d="M410.52,184.09l-7-4.07-4.44,20.89c0,0,4.44,7.26,4.44,12v89.09l7,4.07v-89.15c0-4.69,4.44-6.82,4.44-6.82l-4.44-26.01Z" fill="#ebebeb"/><polygon points="403.49,180.02 405.87,178.65 412.91,182.71 410.52,184.09 403.49,180.02" fill="#fafafa"/><polygon points="412.91,182.71 410.52,184.09 414.96,210.1 417.34,208.73 412.91,182.71" fill="#f5f5f5"/><path d="M412.91,232.28c.36-1.57,2.84-2.45,2.59.17s1,4.45,1.37,5.67c.75,2.57.58,7.42-.43,8.38-1.054038,1.236384-2.605526,1.936938-4.23,1.91-1.946819-.102725-3.80272-.856355-5.27-2.14-1.62-1.26-3.35-8.5.41-7.48c5.59,1.53,5.56-2.49,5.56-2.49v-4.02Z" fill="#ffa8a7"/></g><g><path d="M229.06,256c3.93.79,6.26,3.68,11,11s12.08,20,12.08,20l18.38,7-.79,8.27c0,0-20.05-3.56-22.8-5.6s-13.36-17.42-13.36-17.42L229.06,256Z" fill="#ffa8a7"/><path d="M225.77,254.51c4.08.72,8.12,1.71,10.63,5.6s11.65,18.75,11.65,18.75-3.33,7.82-9.41,9l-8.74-12.59-4.13-20.76Z" fill="#e6e6e6"/><path d="M210.81,254.84c-1.4.34-2.81.43-4.05.68-6.07,1.22-7.19,4.37-7.34,11.71-.24,12.27,0,40.67,0,40.67c5.41,3.93,25.39,6.34,36.77-2c0,0-.58-32.67-.58-38.46s-3.21-12.74-12.09-13.26l-12.71.66Z" fill="#f5f5f5"/><rect width="7.85" height="13.44" rx="0" ry="0" transform="matrix(-1 0 0-1 205.83 421.45)" fill="#ffa8a7"/><polygon points="230.1,411.27 237.94,411.54 238.34,397.32 230.1,397.05 230.1,411.27" fill="#ffa8a7"/><path d="M237.3,305.93v0L235.89,274l-24.7,4c.061905,5.04776-.232157,10.093603-.88,15.1-.46,3.94-4.24,9.31-10.94,11.08-.287642,5.158828-.307669,10.329099-.06,15.49.12,3.72-1.63,44.85-1.63,44.85-.18,2.16-2.26,6-2.42,13.76-.23,11.27,2.39,36.43,2.39,36.43c2.743944,1.350065,5.945631,1.41234,8.74.17s5.28-36.16,6.69-47.31c1.22-9.73,6.35-37.11,6.35-37.11l6,32.91c-.920727,4.091946-1.257402,8.293653-1,12.48.36,5.15,5.14,31,5.14,31c2.772281,1.560797,6.093515,1.813459,9.07.69s.46-40.56.56-45.3c.13-5.37-1.9-56.31-1.9-56.31Z" fill="#37474f"/><path d="M235.89,274c-.26-6.31-1.14-12.14-6.58-17.6-1.487395-1.471008-3.498091-2.291113-5.59-2.28h-1.17c0,0,5.46,4.33,7.6,10.62c1.175448,3.979569,1.758369,8.110562,1.73,12.26l4.01-3Z" fill="#37474f"/><path d="M205.84,417.57v-1.12c.42,0,.68.41.84,1.42.12.72.22,1.27.46,2.22.345326,1.368907.803563,2.706824,1.37,4c1.11,2.74,2,3.75,4.58,6.95.874619.88164,1.689745,1.820371,2.44,2.81.48.84.64,3.19-.16,3.73-3,2-7.47,2-10.65,1.1-2.425147-.676241-4.233841-2.703698-4.63-5.19-.11-.73-.07-1.47-.15-2.2-.289124-1.659061-.975307-3.223557-2-4.56-.586229-.773255-1.092174-1.60421-1.51-2.48-.66-1.61-.13-3.43.29-5c.37-1.39.76-2.92,1.24-2.79v.86c1.115074.879392,2.500122,1.345786,3.92,1.32c1.18.04,3.97-.19,3.96-1.07Z" fill="#263238"/><path d="M238,409.12c.41,0,.74.59,1.64,1.56c1.338788,1.360975,2.897256,2.486724,4.61,3.33c2.94,1.47,8.66,3.73,11.25,4.9c1.61.72,1.54,2.68-.13,3.79s-5.71,1.91-10.55.83c-2.64-.59-6.07-3-8.25-2.9s-6.24.1-7.84-1-1-3.46-.51-5.49c.5-2.22,1.11-5.67,1.85-5.52v.76c.94,1.43,5.81,2,7.89,1l.04-1.26Z" fill="#263238"/><path d="M219.43,330.48c4.057963-1.260696,7.789297-3.397764,10.93-6.26s-2.11,3.94-8.38,7.62l3,29.27-5.55-30.63Z" fill="#263238"/><circle r="10.79" transform="translate(224.72 228.75)" fill="#263238"/><path d="M206.07,236.42c0,0,1.75,8.21,2.45,9.56.466754.832348,1.237053,1.45217,2.15,1.73l-.13-5.77-4.47-5.52Z" fill="#263238"/><path d="M208.26,224.65c-1.238611-.141874-2.473733.293184-3.35,1.18-1.44,1.47-.64,6.08,1.16,10.59l3.29.38-1.1-12.15Z" fill="#263238"/><path d="M210.35,236.8c-.66.39-1.6-.88-2.42-1.73s-3.47-2-4.8.78s1.17,6.61,3.27,7.27c3.6,1.13,4.14-1.18,4.14-1.18l.27,13.41v0c4.49,5.75,16.93,5.26,11.75-.75v-4c1.606147.259266,3.235727.343092,4.86.25c2.65-.41,4.32-2.5,5.12-5.37c1.3-4.61,1.79-8.34.69-17.41-1.2-9.94-12.76-10-19-6.11s-3.88,14.84-3.88,14.84Z" fill="#ffa8a7"/><path d="M211.18,280c.18-8.16-1.68-20.26-4.42-24.44c1.266451-.579727,2.66366-.81432,4.05-.68s5.14,8,4.92,25.12h-4.55Z" fill="#37474f"/><path d="M210.35,237.91c-.33,0-1.6-2.09-2.42-2.84-1.14-1,.33-10.42.33-10.42-.805596-1.69147-.492034-3.703822.79-5.07c1.56-1.71,3.73-3.81,10.81-3c5,.59,10.54,2.17,15,0c.832912,2.953396-.207106,6.11695-2.63,8s-1.61,1-5.83,1.55c-3.901581.294546-7.822235.220888-11.71-.22-1.22-.17-1.48,1-2.14,4.26-.55,2.89-1.09,7.72-2.2,7.74Z" fill="#263238"/><path d="M208.27,225.38l-4-2.14c.257729-.537493.722534-.947397,1.288034-1.135897s1.183287-.13946,1.711966.135897c1.116978.612826,1.556874,1.9941,1,3.14Z" fill="#263238"/><path d="M222.55,250.64c0,0-5.93-1.19-8-2.29-1.213669-.637768-2.20947-1.623123-2.86-2.83.313591,1.211473.867945,2.347388,1.63,3.34c1.51,1.93,9.23,3.36,9.23,3.36v-1.58Z" fill="#f28f8f"/><path d="M222.32,236.07c-.027408.651299-.573719,1.15932-1.22529,1.139411s-1.165848-.560334-1.153442-1.212091.546875-1.172221,1.198732-1.16732c.320945.007859.62561.142941.846924.375508s.341132.543552.333076.864492Z" fill="#263238"/><path d="M221.07,231.59l-2.54,1.4c-.369103-.717242-.109298-1.597936.59-2c.336904-.185358.734576-.226159,1.1021-.113075s.673473.370384.8479.713075Z" fill="#263238"/><path d="M222,243.52l2.71,1c-.118029.368092-.38102.672158-.728259.842003s-.748714.19079-1.111741.057997c-.752178-.297989-1.135838-1.135867-.87-1.9Z" fill="#f28f8f"/><path d="M232.91,232.58l-2.32-1.79c.218694-.313468.556041-.523893.933747-.582438s.762926.039883,1.066253.272438c.644968.505382.785169,1.425454.32,2.1Z" fill="#263238"/><path d="M232.19,235.73c-.027408.651299-.573719,1.15932-1.22529,1.139411s-1.165848-.560334-1.153442-1.212091.546875-1.172221,1.198732-1.16732c.665954.021751,1.191278.573787,1.18,1.24Z" fill="#263238"/><polygon points="225.84,234.83 226.22,241.97 229.95,240.7 225.84,234.83" fill="#f28f8f"/><path d="M282.46,248.09c0-2.2,1.84-5.27,1.28-6.9l-4.06-2.35-8.14,20.45-8.3,4.72-4.1-6l12.27-18.31-4.06-2.34c-.51.24-1,.5-1.56.8-9.27,5.27-16.84,18.25-16.91,29c0,5.42,1.85,9.22,4.91,11v0l4,2.33.47-1.22h.3v95.15c-5.7,6.35-9.67,15.27-9.72,23c0,4,1,7.16,2.79,9.24l4.06,2.35l4.07-22.8l8.3-4.72l4.1,6L264,408.18l4.06,2.34c0,0,14.34-21.4,14.41-32.14.1067-2.685737-.49694-5.3521-1.75-7.73l1-.85-4-2.33v0c-1.508475-.8935-3.249906-1.314926-5-1.21v-95.14c5.72-6.35,9.69-15.26,9.74-23.03Z" fill="#455a64"/><polygon points="258.6,374.43 262.66,376.78 262.66,281.63 258.6,279.28 258.6,374.43" fill="#263238"/><path d="M276.8,368.62v-95.15c5.7-6.35,9.67-15.27,9.72-23c0-4-1-7.16-2.78-9.24l-8.14,20.45-8.3,4.72-4.1-6l8.21-20.66q-.77.36-1.56.81c-9.27,5.27-16.84,18.25-16.91,29-.05,7.88,3.94,12.34,9.72,12.11v95.15c-5.7,6.34-9.67,15.26-9.72,23c0,4,1,7.16,2.79,9.25l8.13-20.46l8.3-4.71l4.1,6-8.21,20.65c.52-.24,1-.5,1.56-.8c9.27-5.27,16.84-18.25,16.91-29c.05-7.89-3.94-12.35-9.72-12.12Z" fill="#37474f"/><polygon points="270.39,384.89 272.16,383.89 276.26,389.87 268.05,410.52 263.99,408.18 272.2,387.52 270.39,384.89" fill="#263238"/><path d="M276.8,290.4c0,1.53-2.32,3.23-4,4.3s-3.86,2.56-3,5.65c.305014,1.217657,1.114483,2.247629,2.225549,2.831798s2.418428.66717,3.594451.228202c2.070736-.902293,3.506287-2.836669,3.77-5.08.42-2.85,1.38-9.67-2.52-10.47l-.07,2.54Z" fill="#ffa8a7"/><path d="M183.63,298.58c6.76-30.35,11-37,20.4-40.47l-1.28,18.24c0,0-8.82,19.65-10.15,26.65-1.17,6.11-2.48,13.79-2.27,19c.040192.924103.421402,1.800529,1.07,2.46c1.73,1.8,2.22,3.31,3.36,5.31.88,1.57,1.83,2.14,1.57,2.5-.700976.813636-1.919411.928416-2.76.26-.927115-.661706-1.770012-1.434082-2.51-2.3.24738,2.027724.81794,4.002739,1.69,5.85c2,4.23,1.57,6.42-4.23,5-3.64-.88-6-3.84-6.69-12.51-.326881-3.192242-.423798-6.403856-.29-9.61.6-8.25,1-15.5,2.09-20.38Z" fill="#ffa8a7"/><path d="M204.85,256c-2.408854.080845-4.752631.802273-6.79,2.09-2.36,1.59-6.29,8-8.78,15.93s-3.8,12.33-3.8,12.33s4.08,6.21,12.88,3.76c0,0,4.95-12.4,4.67-11.61-.03.02,6.56-12.21,1.82-22.5Z" fill="#e6e6e6"/></g></g>
<script><![CDATA[
!function(t,n){"object"==typeof exports&&"undefined"!=typeof module?module.exports=n():"function"==typeof __SVGATOR_DEFINE__&&__SVGATOR_DEFINE__.amd?__SVGATOR_DEFINE__(n):((t="undefined"!=typeof globalThis?globalThis:t||self).__SVGATOR_PLAYER__=t.__SVGATOR_PLAYER__||{},t.__SVGATOR_PLAYER__["5c7f360c"]=n())}(this,(function(){"use strict";function t(t,n){var e=Object.keys(t);if(Object.getOwnPropertySymbols){var r=Object.getOwnPropertySymbols(t);n&&(r=r.filter((function(n){return Object.getOwnPropertyDescriptor(t,n).enumerable}))),e.push.apply(e,r)}return e}function n(n){for(var e=1;e<arguments.length;e++){var r=null!=arguments[e]?arguments[e]:{};e%2?t(Object(r),!0).forEach((function(t){u(n,t,r[t])})):Object.getOwnPropertyDescriptors?Object.defineProperties(n,Object.getOwnPropertyDescriptors(r)):t(Object(r)).forEach((function(t){Object.defineProperty(n,t,Object.getOwnPropertyDescriptor(r,t))}))}return n}function e(t){return(e="function"==typeof Symbol&&"symbol"==typeof Symbol.iterator?function(t){return typeof t}:function(t){return t&&"function"==typeof Symbol&&t.constructor===Symbol&&t!==Symbol.prototype?"symbol":typeof t})(t)}function r(t,n){if(!(t instanceof n))throw new TypeError("Cannot call a class as a function")}function i(t,n){for(var e=0;e<n.length;e++){var r=n[e];r.enumerable=r.enumerable||!1,r.configurable=!0,"value"in r&&(r.writable=!0),Object.defineProperty(t,r.key,r)}}function o(t,n,e){return n&&i(t.prototype,n),e&&i(t,e),t}function u(t,n,e){return n in t?Object.defineProperty(t,n,{value:e,enumerable:!0,configurable:!0,writable:!0}):t[n]=e,t}function a(t){return(a=Object.setPrototypeOf?Object.getPrototypeOf:function(t){return t.__proto__||Object.getPrototypeOf(t)})(t)}function l(t,n){return(l=Object.setPrototypeOf||function(t,n){return t.__proto__=n,t})(t,n)}function s(){if("undefined"==typeof Reflect||!Reflect.construct)return!1;if(Reflect.construct.sham)return!1;if("function"==typeof Proxy)return!0;try{return Boolean.prototype.valueOf.call(Reflect.construct(Boolean,[],(function(){}))),!0}catch(t){return!1}}function f(t,n,e){return(f=s()?Reflect.construct:function(t,n,e){var r=[null];r.push.apply(r,n);var i=new(Function.bind.apply(t,r));return e&&l(i,e.prototype),i}).apply(null,arguments)}function c(t,n){if(n&&("object"==typeof n||"function"==typeof n))return n;if(void 0!==n)throw new TypeError("Derived constructors may only return object or undefined");return function(t){if(void 0===t)throw new ReferenceError("this hasn't been initialised - super() hasn't been called");return t}(t)}function h(t,n,e){return(h="undefined"!=typeof Reflect&&Reflect.get?Reflect.get:function(t,n,e){var r=function(t,n){for(;!Object.prototype.hasOwnProperty.call(t,n)&&null!==(t=a(t)););return t}(t,n);if(r){var i=Object.getOwnPropertyDescriptor(r,n);return i.get?i.get.call(e):i.value}})(t,n,e||t)}function v(t){return function(t){if(Array.isArray(t))return y(t)}(t)||function(t){if("undefined"!=typeof Symbol&&null!=t[Symbol.iterator]||null!=t["@@iterator"])return Array.from(t)}(t)||function(t,n){if(!t)return;if("string"==typeof t)return y(t,n);var e=Object.prototype.toString.call(t).slice(8,-1);"Object"===e&&t.constructor&&(e=t.constructor.name);if("Map"===e||"Set"===e)return Array.from(t);if("Arguments"===e||/^(?:Ui|I)nt(?:8|16|32)(?:Clamped)?Array$/.test(e))return y(t,n)}(t)||function(){throw new TypeError("Invalid attempt to spread non-iterable instance.\nIn order to be iterable, non-array objects must have a [Symbol.iterator]() method.")}()}function y(t,n){(null==n||n>t.length)&&(n=t.length);for(var e=0,r=new Array(n);e<n;e++)r[e]=t[e];return r}function g(t,n,e){if(Number.isInteger(t))return t;var r=Math.pow(10,n);return Math[e]((+t+Number.EPSILON)*r)/r}Number.isInteger||(Number.isInteger=function(t){return"number"==typeof t&&isFinite(t)&&Math.floor(t)===t}),Number.EPSILON||(Number.EPSILON=2220446049250313e-31);var d=p(Math.pow(10,-6));function p(t){var n=arguments.length>1&&void 0!==arguments[1]?arguments[1]:6;return g(t,n,"round")}function m(t,n){var e=arguments.length>2&&void 0!==arguments[2]?arguments[2]:d;return Math.abs(t-n)<e}p(Math.pow(10,-2)),p(Math.pow(10,-4));var b=Math.PI/180;function w(t){return t}function A(t,n,e){var r=1-e;return 3*e*r*(t*r+n*e)+e*e*e}function _(){var t=arguments.length>0&&void 0!==arguments[0]?arguments[0]:0,n=arguments.length>1&&void 0!==arguments[1]?arguments[1]:0,e=arguments.length>2&&void 0!==arguments[2]?arguments[2]:1,r=arguments.length>3&&void 0!==arguments[3]?arguments[3]:1;return t<0||t>1||e<0||e>1?null:m(t,n)&&m(e,r)?w:function(i){if(i<=0)return t>0?i*n/t:0===n&&e>0?i*r/e:0;if(i>=1)return e<1?1+(i-1)*(r-1)/(e-1):1===e&&t<1?1+(i-1)*(n-1)/(t-1):1;for(var o,u=0,a=1;u<a;){var l=A(t,e,o=(u+a)/2);if(m(i,l))break;l<i?u=o:a=o}return A(n,r,o)}}function x(){return 1}function k(t){return 1===t?1:0}function S(){var t=arguments.length>0&&void 0!==arguments[0]?arguments[0]:1,n=arguments.length>1&&void 0!==arguments[1]?arguments[1]:0;if(1===t){if(0===n)return k;if(1===n)return x}var e=1/t;return function(t){return t>=1?1:(t+=n*e)-t%e}}var O=Math.sin,j=Math.cos,M=Math.acos,E=Math.asin,P=Math.tan,I=Math.atan2,R=Math.PI/180,F=180/Math.PI,N=Math.sqrt,T=function(){function t(){var n=arguments.length>0&&void 0!==arguments[0]?arguments[0]:1,e=arguments.length>1&&void 0!==arguments[1]?arguments[1]:0,i=arguments.length>2&&void 0!==arguments[2]?arguments[2]:0,o=arguments.length>3&&void 0!==arguments[3]?arguments[3]:1,u=arguments.length>4&&void 0!==arguments[4]?arguments[4]:0,a=arguments.length>5&&void 0!==arguments[5]?arguments[5]:0;r(this,t),this.m=[n,e,i,o,u,a],this.i=null,this.w=null,this.s=null}return o(t,[{key:"determinant",get:function(){var t=this.m;return t[0]*t[3]-t[1]*t[2]}},{key:"isIdentity",get:function(){if(null===this.i){var t=this.m;this.i=1===t[0]&&0===t[1]&&0===t[2]&&1===t[3]&&0===t[4]&&0===t[5]}return this.i}},{key:"point",value:function(t,n){var e=this.m;return{x:e[0]*t+e[2]*n+e[4],y:e[1]*t+e[3]*n+e[5]}}},{key:"translateSelf",value:function(){var t=arguments.length>0&&void 0!==arguments[0]?arguments[0]:0,n=arguments.length>1&&void 0!==arguments[1]?arguments[1]:0;if(!t&&!n)return this;var e=this.m;return e[4]+=e[0]*t+e[2]*n,e[5]+=e[1]*t+e[3]*n,this.w=this.s=this.i=null,this}},{key:"rotateSelf",value:function(){var t=arguments.length>0&&void 0!==arguments[0]?arguments[0]:0;if(t%=360){var n=O(t*=R),e=j(t),r=this.m,i=r[0],o=r[1];r[0]=i*e+r[2]*n,r[1]=o*e+r[3]*n,r[2]=r[2]*e-i*n,r[3]=r[3]*e-o*n,this.w=this.s=this.i=null}return this}},{key:"scaleSelf",value:function(){var t=arguments.length>0&&void 0!==arguments[0]?arguments[0]:1,n=arguments.length>1&&void 0!==arguments[1]?arguments[1]:1;if(1!==t||1!==n){var e=this.m;e[0]*=t,e[1]*=t,e[2]*=n,e[3]*=n,this.w=this.s=this.i=null}return this}},{key:"skewSelf",value:function(t,n){if(n%=360,(t%=360)||n){var e=this.m,r=e[0],i=e[1],o=e[2],u=e[3];t&&(t=P(t*R),e[2]+=r*t,e[3]+=i*t),n&&(n=P(n*R),e[0]+=o*n,e[1]+=u*n),this.w=this.s=this.i=null}return this}},{key:"resetSelf",value:function(){var t=arguments.length>0&&void 0!==arguments[0]?arguments[0]:1,n=arguments.length>1&&void 0!==arguments[1]?arguments[1]:0,e=arguments.length>2&&void 0!==arguments[2]?arguments[2]:0,r=arguments.length>3&&void 0!==arguments[3]?arguments[3]:1,i=arguments.length>4&&void 0!==arguments[4]?arguments[4]:0,o=arguments.length>5&&void 0!==arguments[5]?arguments[5]:0,u=this.m;return u[0]=t,u[1]=n,u[2]=e,u[3]=r,u[4]=i,u[5]=o,this.w=this.s=this.i=null,this}},{key:"recomposeSelf",value:function(){var t=arguments.length>0&&void 0!==arguments[0]?arguments[0]:null,n=arguments.length>1&&void 0!==arguments[1]?arguments[1]:null,e=arguments.length>2&&void 0!==arguments[2]?arguments[2]:null,r=arguments.length>3&&void 0!==arguments[3]?arguments[3]:null,i=arguments.length>4&&void 0!==arguments[4]?arguments[4]:null;return this.isIdentity||this.resetSelf(),t&&(t.x||t.y)&&this.translateSelf(t.x,t.y),n&&this.rotateSelf(n),e&&(e.x&&this.skewSelf(e.x,0),e.y&&this.skewSelf(0,e.y)),!r||1===r.x&&1===r.y||this.scaleSelf(r.x,r.y),i&&(i.x||i.y)&&this.translateSelf(i.x,i.y),this}},{key:"decompose",value:function(){var t=arguments.length>0&&void 0!==arguments[0]?arguments[0]:0,n=arguments.length>1&&void 0!==arguments[1]?arguments[1]:0,e=this.m,r=e[0]*e[0]+e[1]*e[1],i=[[e[0],e[1]],[e[2],e[3]]],o=N(r);if(0===o)return{origin:{x:p(e[4]),y:p(e[5])},translate:{x:p(t),y:p(n)},scale:{x:0,y:0},skew:{x:0,y:0},rotate:0};i[0][0]/=o,i[0][1]/=o;var u=e[0]*e[3]-e[1]*e[2]<0;u&&(o=-o);var a=i[0][0]*i[1][0]+i[0][1]*i[1][1];i[1][0]-=i[0][0]*a,i[1][1]-=i[0][1]*a;var l=N(i[1][0]*i[1][0]+i[1][1]*i[1][1]);if(0===l)return{origin:{x:p(e[4]),y:p(e[5])},translate:{x:p(t),y:p(n)},scale:{x:p(o),y:0},skew:{x:0,y:0},rotate:0};i[1][0]/=l,i[1][1]/=l,a/=l;var s=0;return i[1][1]<0?(s=M(i[1][1])*F,i[0][1]<0&&(s=360-s)):s=E(i[0][1])*F,u&&(s=-s),a=I(a,N(i[0][0]*i[0][0]+i[0][1]*i[0][1]))*F,u&&(a=-a),{origin:{x:p(e[4]),y:p(e[5])},translate:{x:p(t),y:p(n)},scale:{x:p(o),y:p(l)},skew:{x:p(a),y:0},rotate:p(s)}}},{key:"clone",value:function(){var t=this.m;return new this.constructor(t[0],t[1],t[2],t[3],t[4],t[5])}},{key:"toString",value:function(){var t=arguments.length>0&&void 0!==arguments[0]?arguments[0]:" ";if(null===this.s){var n=this.m.map((function(t){return p(t)}));1===n[0]&&0===n[1]&&0===n[2]&&1===n[3]?this.s="translate("+n[4]+t+n[5]+")":this.s="matrix("+n.join(t)+")"}return this.s}}],[{key:"create",value:function(t){return t?Array.isArray(t)?f(this,v(t)):t instanceof this?t.clone():(new this).recomposeSelf(t.origin,t.rotate,t.skew,t.scale,t.translate):new this}}]),t}();function q(t,n,e){return t>=.5?e:n}function B(t,n,e){return 0===t||n===e?n:t*(e-n)+n}function D(t,n,e){var r=B(t,n,e);return r<=0?0:r}function L(t,n,e){var r=B(t,n,e);return r<=0?0:r>=1?1:r}function C(t,n,e){return 0===t?n:1===t?e:{x:B(t,n.x,e.x),y:B(t,n.y,e.y)}}function V(t,n,e){var r=function(t,n,e){return Math.round(B(t,n,e))}(t,n,e);return r<=0?0:r>=255?255:r}function G(t,n,e){return 0===t?n:1===t?e:{r:V(t,n.r,e.r),g:V(t,n.g,e.g),b:V(t,n.b,e.b),a:B(t,null==n.a?1:n.a,null==e.a?1:e.a)}}function z(t,n){for(var e=[],r=0;r<t;r++)e.push(n);return e}function Y(t,n){if(--n<=0)return t;var e=(t=Object.assign([],t)).length;do{for(var r=0;r<e;r++)t.push(t[r])}while(--n>0);return t}var $,U=function(){function t(n){r(this,t),this.list=n,this.length=n.length}return o(t,[{key:"setAttribute",value:function(t,n){for(var e=this.list,r=0;r<this.length;r++)e[r].setAttribute(t,n)}},{key:"removeAttribute",value:function(t){for(var n=this.list,e=0;e<this.length;e++)n[e].removeAttribute(t)}},{key:"style",value:function(t,n){for(var e=this.list,r=0;r<this.length;r++)e[r].style[t]=n}}]),t}(),Q=/-./g,H=function(t,n){return n.toUpperCase()};function J(t){return"function"==typeof t?t:q}function Z(t){return t?"function"==typeof t?t:Array.isArray(t)?function(t){var n=arguments.length>1&&void 0!==arguments[1]?arguments[1]:w;if(!Array.isArray(t))return n;switch(t.length){case 1:return S(t[0])||n;case 2:return S(t[0],t[1])||n;case 4:return _(t[0],t[1],t[2],t[3])||n}return n}(t,null):function(t,n){var e=arguments.length>2&&void 0!==arguments[2]?arguments[2]:w;switch(t){case"linear":return w;case"steps":return S(n.steps||1,n.jump||0)||e;case"bezier":case"cubic-bezier":return _(n.x1||0,n.y1||0,n.x2||0,n.y2||0)||e}return e}(t.type,t.value,null):null}function K(t,n,e){var r=arguments.length>3&&void 0!==arguments[3]&&arguments[3],i=n.length-1;if(t<=n[0].t)return r?[0,0,n[0].v]:n[0].v;if(t>=n[i].t)return r?[i,1,n[i].v]:n[i].v;var o,u=n[0],a=null;for(o=1;o<=i;o++){if(!(t>n[o].t)){a=n[o];break}u=n[o]}return null==a?r?[i,1,n[i].v]:n[i].v:u.t===a.t?r?[o,1,a.v]:a.v:(t=(t-u.t)/(a.t-u.t),u.e&&(t=u.e(t)),r?[o,t,e(t,u.v,a.v)]:e(t,u.v,a.v))}function W(t,n){var e=arguments.length>2&&void 0!==arguments[2]?arguments[2]:null;return t&&t.length?"function"!=typeof n?null:("function"!=typeof e&&(e=null),function(r){var i=K(r,t,n);return null!=i&&e&&(i=e(i)),i}):null}function X(t,n){return t.t-n.t}function tt(t,n,r,i,o){var u,a="@"===r[0],l="#"===r[0],s=$[r],f=q;switch(a?(u=r.substr(1),r=u.replace(Q,H)):l&&(r=r.substr(1)),e(s)){case"function":if(f=s(i,o,K,Z,r,a,n,t),l)return f;break;case"string":f=W(i,J(s));break;case"object":if((f=W(i,J(s.i),s.f))&&"function"==typeof s.u)return s.u(n,f,r,a,t)}return f?function(t,n,e){if(arguments.length>3&&void 0!==arguments[3]&&arguments[3])return t instanceof U?function(r){return t.style(n,e(r))}:function(r){return t.style[n]=e(r)};if(Array.isArray(n)){var r=n.length;return function(i){var o=e(i);if(null==o)for(var u=0;u<r;u++)t[u].removeAttribute(n);else for(var a=0;a<r;a++)t[a].setAttribute(n,o)}}return function(r){var i=e(r);null==i?t.removeAttribute(n):t.setAttribute(n,i)}}(n,r,f,a):null}function nt(t,n,r,i){if(!i||"object"!==e(i))return null;var o=null,u=null;return Array.isArray(i)?u=function(t){if(!t||!t.length)return null;for(var n=0;n<t.length;n++)t[n].e&&(t[n].e=Z(t[n].e));return t.sort(X)}(i):(u=i.keys,o=i.data||null),u?tt(t,n,r,u,o):null}function et(t,n,e){if(!e)return null;var r=[];for(var i in e)if(e.hasOwnProperty(i)){var o=nt(t,n,i,e[i]);o&&r.push(o)}return r.length?r:null}function rt(t,n){if(!n.settings.duration||n.settings.duration<0)return null;var e,r,i,o,u,a=function(t,n){if(!n)return null;var e=[];if(Array.isArray(n))for(var r=n.length,i=0;i<r;i++){var o=n[i];if(2===o.length){var u=null;if("string"==typeof o[0])u=t.getElementById(o[0]);else if(Array.isArray(o[0])){u=[];for(var a=0;a<o[0].length;a++)if("string"==typeof o[0][a]){var l=t.getElementById(o[0][a]);l&&u.push(l)}u=u.length?1===u.length?u[0]:new U(u):null}if(u){var s=et(t,u,o[1]);s&&(e=e.concat(s))}}}else for(var f in n)if(n.hasOwnProperty(f)){var c=t.getElementById(f);if(c){var h=et(t,c,n[f]);h&&(e=e.concat(h))}}return e.length?e:null}(t,n.elements);return a?(e=a,r=n.settings,i=r.duration,o=e.length,u=null,function(t,n){var a=r.iterations||1/0,l=(r.alternate&&a%2==0)^r.direction>0?i:0,s=t%i,f=1+(t-s)/i;n*=r.direction,r.alternate&&f%2==0&&(n=-n);var c=!1;if(f>a)s=l,c=!0,-1===r.fill&&(s=r.direction>0?0:i);else if(n<0&&(s=i-s),s===u)return!1;u=s;for(var h=0;h<o;h++)e[h](s);return c}):null}function it(t,n){for(var e=n.querySelectorAll("svg"),r=0;r<e.length;r++)if(e[r].id===t.root&&!e[r].svgatorAnimation)return e[r].svgatorAnimation=!0,e[r];return null}function ot(t){var n=function(t){return t.shadowRoot};return document?Array.from(t.querySelectorAll(":not("+["a","area","audio","br","canvas","circle","datalist","embed","g","head","hr","iframe","img","input","link","object","path","polygon","rect","script","source","style","svg","title","track","video"].join()+")")).filter(n).map(n):[]}function ut(t){var n=arguments.length>1&&void 0!==arguments[1]?arguments[1]:document,e=arguments.length>2&&void 0!==arguments[2]?arguments[2]:0,r=it(t,n);if(r)return r;if(e>=20)return null;for(var i=ot(n),o=0;o<i.length;o++){var u=ut(t,i[o],e+1);if(u)return u}return null}function at(t,n){if($=n,!t||!t.root||!Array.isArray(t.animations))return null;var e=ut(t);if(!e)return null;var r=t.animations.map((function(t){return rt(e,t)})).filter((function(t){return!!t}));return r.length?{svg:e,animations:r,animationSettings:t.animationSettings,options:t.options||void 0}:null}function lt(t){var n=arguments.length>1&&void 0!==arguments[1]?arguments[1]:null,e=arguments.length>2&&void 0!==arguments[2]?arguments[2]:Number,r=arguments.length>3&&void 0!==arguments[3]?arguments[3]:"undefined"!=typeof BigInt&&BigInt,i="0x"+(t.replace(/[^0-9a-fA-F]+/g,"")||27);return n&&r&&e.isSafeInteger&&!e.isSafeInteger(+i)?e(r(i))%n+n:+i}function st(t,n,e){return!t||!e||n>t.length?t:t.substring(0,n)+st(t.substring(n+1),e,e)}function ft(t){var n=arguments.length>1&&void 0!==arguments[1]?arguments[1]:27;return!t||t%n?t%n:[0,1].includes(n)?n:ft(t/n,n)}function ct(t,n,e){if(t&&t.length){var r=lt(e),i=ft(r)+5,o=st(t,ft(r,5),i);return o=o.replace(/\x7c$/g,"==").replace(/\x2f$/g,"="),o=function(t,n,e){var r=+("0x"+t.substring(0,4));t=t.substring(4);for(var i=lt(n,r)%r+e%27,o=[],u=0;u<t.length;u+=2)if("|"!==t[u]){var a=+("0x"+t[u]+t[u+1])-i;o.push(a)}else{var l=+("0x"+t.substring(u+1,u+1+4))-i;u+=3,o.push(l)}return String.fromCharCode.apply(String,o)}(o=(o=atob(o)).replace(/[\x41-\x5A]/g,""),n,r),o=JSON.parse(o)}}var ht=[{key:"alternate",def:!1},{key:"fill",def:1},{key:"iterations",def:0},{key:"direction",def:1},{key:"speed",def:1},{key:"fps",def:100}],vt=function(){function t(n,e){var i=this,o=arguments.length>2&&void 0!==arguments[2]?arguments[2]:null;r(this,t),this._id=0,this._running=!1,this._rollingBack=!1,this._animations=n,this._settings=e,(!o||o<"2022-05-02")&&delete this._settings.speed,ht.forEach((function(t){i._settings[t.key]=i._settings[t.key]||t.def})),this.duration=e.duration,this.offset=e.offset||0,this.rollbackStartOffset=0}return o(t,[{key:"alternate",get:function(){return this._settings.alternate}},{key:"fill",get:function(){return this._settings.fill}},{key:"iterations",get:function(){return this._settings.iterations}},{key:"direction",get:function(){return this._settings.direction}},{key:"speed",get:function(){return this._settings.speed}},{key:"fps",get:function(){return this._settings.fps}},{key:"maxFiniteDuration",get:function(){return this.iterations>0?this.iterations*this.duration:this.duration}},{key:"_apply",value:function(t){for(var n=arguments.length>1&&void 0!==arguments[1]?arguments[1]:{},e=this._animations,r=e.length,i=0,o=0;o<r;o++)n[o]?i++:(n[o]=e[o](t,1),n[o]&&i++);return i}},{key:"_rollback",value:function(t){var n=this,e=1/0,r=null;this.rollbackStartOffset=t,this._rollingBack=!0,this._running=!0;this._id=window.requestAnimationFrame((function i(o){if(n._rollingBack){null==r&&(r=o);var u=Math.round(t-(o-r)*n.speed);if(u>n.duration&&e!==1/0){var a=!!n.alternate&&u/n.duration%2>1,l=u%n.duration;u=(l+=a?n.duration:0)||n.duration}var s=(n.fps?1e3/n.fps:0)*n.speed,f=Math.max(0,u);f<=e-s&&(n.offset=f,e=f,n._apply(f));var c=n.iterations>0&&-1===n.fill&&u>=n.maxFiniteDuration;(u<=0||n.offset<u||c)&&n.stop(),n._id=window.requestAnimationFrame(i)}}))}},{key:"_start",value:function(){var t=this,n=arguments.length>0&&void 0!==arguments[0]?arguments[0]:0,e=-1/0,r=null,i={};this._running=!0;var o=function o(u){null==r&&(r=u);var a=Math.round((u-r)*t.speed+n),l=(t.fps?1e3/t.fps:0)*t.speed;if(a>=e+l&&!t._rollingBack&&(t.offset=a,e=a,t._apply(a,i)===t._animations.length))return void t.pause(!0);t._id=window.requestAnimationFrame(o)};this._id=window.requestAnimationFrame(o)}},{key:"_pause",value:function(){this._id&&window.cancelAnimationFrame(this._id),this._running=!1}},{key:"play",value:function(){if(!this._running)return this._rollingBack?this._rollback(this.offset):this._start(this.offset)}},{key:"stop",value:function(){this._pause(),this.offset=0,this.rollbackStartOffset=0,this._rollingBack=!1,this._apply(0)}},{key:"reachedToEnd",value:function(){return this.iterations>0&&this.offset>=this.iterations*this.duration}},{key:"restart",value:function(){var t=arguments.length>0&&void 0!==arguments[0]&&arguments[0];this.stop(t),this.play(t)}},{key:"pause",value:function(){this._pause()}},{key:"reverse",value:function(){this.direction=-this.direction}}],[{key:"build",value:function(t,n){delete t.animationSettings,t.options=ct(t.options,t.root,"5c7f360c"),t.animations.map((function(n){n.settings=ct(n.s,t.root,"5c7f360c"),delete n.s,t.animationSettings||(t.animationSettings=n.settings)}));var e=t.version;if(!(t=at(t,n)))return null;var r=t.options||{},i=new this(t.animations,t.animationSettings,e);return{el:t.svg,options:r,player:i}}},{key:"push",value:function(t){return this.build(t)}},{key:"init",value:function(){var t=this,n=window.__SVGATOR_PLAYER__&&window.__SVGATOR_PLAYER__["5c7f360c"];Array.isArray(n)&&n.splice(0).forEach((function(n){return t.build(n)}))}}]),t}();function yt(t){return p(t)+""}function gt(t){var n=arguments.length>1&&void 0!==arguments[1]?arguments[1]:" ";return t&&t.length?t.map(yt).join(n):""}function dt(t){if(!t)return"transparent";if(null==t.a||t.a>=1){var n=function(t){return 1===(t=parseInt(t).toString(16)).length?"0"+t:t},e=function(t){return t.charAt(0)===t.charAt(1)},r=n(t.r),i=n(t.g),o=n(t.b);return e(r)&&e(i)&&e(o)&&(r=r.charAt(0),i=i.charAt(0),o=o.charAt(0)),"#"+r+i+o}return"rgba("+t.r+","+t.g+","+t.b+","+t.a+")"}function pt(t){return t?"url(#"+t+")":"none"}!function(){for(var t=0,n=["ms","moz","webkit","o"],e=0;e<n.length&&!window.requestAnimationFrame;++e)window.requestAnimationFrame=window[n[e]+"RequestAnimationFrame"],window.cancelAnimationFrame=window[n[e]+"CancelAnimationFrame"]||window[n[e]+"CancelRequestAnimationFrame"];window.requestAnimationFrame||(window.requestAnimationFrame=function(n){var e=Date.now(),r=Math.max(0,16-(e-t)),i=window.setTimeout((function(){n(e+r)}),r);return t=e+r,i},window.cancelAnimationFrame=window.clearTimeout)}();var mt={f:null,i:function(t,n,e){return 0===t?n:1===t?e:{x:D(t,n.x,e.x),y:D(t,n.y,e.y)}},u:function(t,n){return function(e){var r=n(e);t.setAttribute("rx",yt(r.x)),t.setAttribute("ry",yt(r.y))}}},bt={f:null,i:function(t,n,e){return 0===t?n:1===t?e:{width:D(t,n.width,e.width),height:D(t,n.height,e.height)}},u:function(t,n){return function(e){var r=n(e);t.setAttribute("width",yt(r.width)),t.setAttribute("height",yt(r.height))}}};Object.freeze({M:2,L:2,Z:0,H:1,V:1,C:6,Q:4,T:2,S:4,A:7});var wt={},At=null;function _t(t){var n=function(){if(At)return At;if("object"!==("undefined"==typeof document?"undefined":e(document))||!document.createElementNS)return{};var t=document.createElementNS("http://www.w3.org/2000/svg","svg");return t&&t.style?(t.style.position="absolute",t.style.opacity="0.01",t.style.zIndex="-9999",t.style.left="-9999px",t.style.width="1px",t.style.height="1px",At={svg:t}):{}}().svg;if(!n)return function(t){return null};var r=document.createElementNS(n.namespaceURI,"path");r.setAttributeNS(null,"d",t),r.setAttributeNS(null,"fill","none"),r.setAttributeNS(null,"stroke","none"),n.appendChild(r);var i=r.getTotalLength();return function(t){var n=r.getPointAtLength(i*t);return{x:n.x,y:n.y}}}function xt(t){return wt[t]?wt[t]:wt[t]=_t(t)}function kt(t,n,e,r){if(!t||!r)return!1;var i=["M",t.x,t.y];if(n&&e&&(i.push("C"),i.push(n.x),i.push(n.y),i.push(e.x),i.push(e.y)),n?!e:e){var o=n||e;i.push("Q"),i.push(o.x),i.push(o.y)}return n||e||i.push("L"),i.push(r.x),i.push(r.y),i.join(" ")}function St(t,n,e,r){var i=arguments.length>4&&void 0!==arguments[4]?arguments[4]:1,o=kt(t,n,e,r),u=xt(o);try{return u(i)}catch(t){return null}}function Ot(t,n,e){return t+(n-t)*e}function jt(t,n,e){var r=arguments.length>3&&void 0!==arguments[3]&&arguments[3],i={x:Ot(t.x,n.x,e),y:Ot(t.y,n.y,e)};return r&&(i.a=Mt(t,n)),i}function Mt(t,n){return Math.atan2(n.y-t.y,n.x-t.x)}function Et(t,n,e,r){var i=1-r;return i*i*t+2*i*r*n+r*r*e}function Pt(t,n,e,r){return 2*(1-r)*(n-t)+2*r*(e-n)}function It(t,n,e,r){var i=arguments.length>4&&void 0!==arguments[4]&&arguments[4],o=St(t,n,null,e,r);return o||(o={x:Et(t.x,n.x,e.x,r),y:Et(t.y,n.y,e.y,r)}),i&&(o.a=Rt(t,n,e,r)),o}function Rt(t,n,e,r){return Math.atan2(Pt(t.y,n.y,e.y,r),Pt(t.x,n.x,e.x,r))}function Ft(t,n,e,r,i){var o=i*i;return i*o*(r-t+3*(n-e))+3*o*(t+e-2*n)+3*i*(n-t)+t}function Nt(t,n,e,r,i){var o=1-i;return 3*(o*o*(n-t)+2*o*i*(e-n)+i*i*(r-e))}function Tt(t,n,e,r,i){var o=arguments.length>5&&void 0!==arguments[5]&&arguments[5],u=St(t,n,e,r,i);return u||(u={x:Ft(t.x,n.x,e.x,r.x,i),y:Ft(t.y,n.y,e.y,r.y,i)}),o&&(u.a=qt(t,n,e,r,i)),u}function qt(t,n,e,r,i){return Math.atan2(Nt(t.y,n.y,e.y,r.y,i),Nt(t.x,n.x,e.x,r.x,i))}function Bt(t,n,e){var r=arguments.length>3&&void 0!==arguments[3]&&arguments[3];if(Lt(n)){if(Ct(e))return It(n,e.start,e,t,r)}else if(Lt(e)){if(Vt(n))return It(n,n.end,e,t,r)}else{if(Vt(n))return Ct(e)?Tt(n,n.end,e.start,e,t,r):It(n,n.end,e,t,r);if(Ct(e))return It(n,e.start,e,t,r)}return jt(n,e,t,r)}function Dt(t,n,e){var r=Bt(t,n,e,!0);return r.a=function(t){return arguments.length>1&&void 0!==arguments[1]&&arguments[1]?t+Math.PI:t}(r.a)/b,r}function Lt(t){return!t.type||"corner"===t.type}function Ct(t){return null!=t.start&&!Lt(t)}function Vt(t){return null!=t.end&&!Lt(t)}var Gt=new T;var zt={f:yt,i:B},Yt={f:yt,i:L};function $t(t,n,e){return t.map((function(t){return function(t,n,e){var r=t.v;if(!r||"g"!==r.t||r.s||!r.v||!r.r)return t;var i=e.getElementById(r.r),o=i&&i.querySelectorAll("stop")||[];return r.s=r.v.map((function(t,n){var e=o[n]&&o[n].getAttribute("offset");return{c:t,o:e=p(parseInt(e)/100)}})),delete r.v,t}(t,0,e)}))}var Ut={gt:"gradientTransform",c:{x:"cx",y:"cy"},rd:"r",f:{x:"x1",y:"y1"},to:{x:"x2",y:"y2"}};function Qt(t,n,r,i,o,u,a,l){return $t(t,0,l),n=function(t,n,e){for(var r,i,o,u=t.length-1,a={},l=0;l<=u;l++)(r=t[l]).e&&(r.e=n(r.e)),r.v&&"g"===(i=r.v).t&&i.r&&(o=e.getElementById(i.r))&&(a[i.r]={e:o,s:o.querySelectorAll("stop")});return a}(t,i,l),function(i){var o=r(i,t,Ht);if(!o)return"none";if("c"===o.t)return dt(o.v);if("g"===o.t){if(!n[o.r])return pt(o.r);var u=n[o.r];return function(t,n){for(var e=t.s,r=e.length;r<n.length;r++){var i=e[e.length-1].cloneNode();i.id=Kt(i.id),t.e.appendChild(i),e=t.s=t.e.querySelectorAll("stop")}for(var o=0,u=e.length,a=n.length-1;o<u;o++)e[o].setAttribute("stop-color",dt(n[Math.min(o,a)].c)),e[o].setAttribute("offset",n[Math.min(o,a)].o)}(u,o.s),Object.keys(Ut).forEach((function(t){if(void 0!==o[t])if("object"!==e(Ut[t])){var n,r="gt"===t?(n=o[t],Array.isArray(n)?"matrix("+n.join(" ")+")":""):o[t],i=Ut[t];u.e.setAttribute(i,r)}else Object.keys(Ut[t]).forEach((function(n){if(void 0!==o[t][n]){var e=o[t][n],r=Ut[t][n];u.e.setAttribute(r,e)}}))})),pt(o.r)}return"none"}}function Ht(t,e,r){if(0===t)return e;if(1===t)return r;if(e&&r){var i=e.t;if(i===r.t)switch(e.t){case"c":return{t:i,v:G(t,e.v,r.v)};case"g":if(e.r===r.r){var o={t:i,s:Jt(t,e.s,r.s),r:e.r};return e.gt&&r.gt&&(o.gt=function(t,n,e){var r=n.length;if(r!==e.length)return q(t,n,e);for(var i=new Array(r),o=0;o<r;o++)i[o]=B(t,n[o],e[o]);return i}(t,e.gt,r.gt)),e.c?(o.c=C(t,e.c,r.c),o.rd=D(t,e.rd,r.rd)):e.f&&(o.f=C(t,e.f,r.f),o.to=C(t,e.to,r.to)),o}}if("c"===e.t&&"g"===r.t||"c"===r.t&&"g"===e.t){var u="c"===e.t?e:r,a="g"===e.t?n({},e):n({},r),l=a.s.map((function(t){return{c:u.v,o:t.o}}));return a.s="c"===e.t?Jt(t,l,a.s):Jt(t,a.s,l),a}}return q(t,e,r)}function Jt(t,n,e){if(n.length===e.length)return n.map((function(n,r){return Zt(t,n,e[r])}));for(var r=Math.max(n.length,e.length),i=[],o=0;o<r;o++){var u=Zt(t,n[Math.min(o,n.length-1)],e[Math.min(o,e.length-1)]);i.push(u)}return i}function Zt(t,n,e){return{o:L(t,n.o,e.o||0),c:G(t,n.c,e.c||{})}}function Kt(t){return t.replace(/-fill-([0-9]+)$/,(function(t,n){return"-fill-"+(+n+1)}))}var Wt={fill:Qt,"fill-opacity":Yt,stroke:Qt,"stroke-opacity":Yt,"stroke-width":zt,"stroke-dashoffset":{f:yt,i:B},"stroke-dasharray":{f:function(t){var n=arguments.length>1&&void 0!==arguments[1]?arguments[1]:" ";return t&&t.length>0&&(t=t.map((function(t){return p(t,4)}))),gt(t,n)},i:function(t,n,e){var r,i,o,u=n.length,a=e.length;if(u!==a)if(0===u)n=z(u=a,0);else if(0===a)a=u,e=z(u,0);else{var l=(o=(r=u)*(i=a)/function(t,n){for(var e;n;)e=n,n=t%n,t=e;return t||1}(r,i))<0?-o:o;n=Y(n,Math.floor(l/u)),e=Y(e,Math.floor(l/a)),u=a=l}for(var s=[],f=0;f<u;f++)s.push(p(D(t,n[f],e[f])));return s}},opacity:Yt,transform:function(t,n,r,i){if(!(t=function(t,n){if(!t||"object"!==e(t))return null;var r=!1;for(var i in t)t.hasOwnProperty(i)&&(t[i]&&t[i].length?(t[i].forEach((function(t){t.e&&(t.e=n(t.e))})),r=!0):delete t[i]);return r?t:null}(t,i)))return null;var o=function(e,i,o){var u=arguments.length>3&&void 0!==arguments[3]?arguments[3]:null;return t[e]?r(i,t[e],o):n&&n[e]?n[e]:u};return n&&n.a&&t.o?function(n){var e=r(n,t.o,Dt);return Gt.recomposeSelf(e,o("r",n,B,0)+e.a,o("k",n,C),o("s",n,C),o("t",n,C)).toString()}:function(t){return Gt.recomposeSelf(o("o",t,Bt,null),o("r",t,B,0),o("k",t,C),o("s",t,C),o("t",t,C)).toString()}},r:zt,"#size":bt,"#radius":mt,_:function(t,n){if(Array.isArray(t))for(var e=0;e<t.length;e++)this[t[e]]=n;else this[t]=n}},Xt=function(t){!function(t,n){if("function"!=typeof n&&null!==n)throw new TypeError("Super expression must either be null or a function");t.prototype=Object.create(n&&n.prototype,{constructor:{value:t,writable:!0,configurable:!0}}),n&&l(t,n)}(u,t);var n,e,i=(n=u,e=s(),function(){var t,r=a(n);if(e){var i=a(this).constructor;t=Reflect.construct(r,arguments,i)}else t=r.apply(this,arguments);return c(this,t)});function u(){return r(this,u),i.apply(this,arguments)}return o(u,null,[{key:"build",value:function(t){var n=h(a(u),"build",this).call(this,t,Wt);if(!n)return null;n.el,n.options,function(t,n,e){t.play()}(n.player)}}]),u}(vt);return Xt.init(),Xt}));
(function(s,i,o,w,d,a,b){w[o]=w[o]||{};w[o][s]=w[o][s]||[];w[o][s].push(i);})('5c7f360c',{"root":"eA7mYQ0vTVF1","version":"2022-05-04","animations":[{"elements":{"eA7mYQ0vTVF2":{"transform":{"data":{"s":{"x":0.810275,"y":0.831127},"t":{"x":-238.665,"y":-252.219999}},"keys":{"o":[{"t":0,"v":{"x":263.144009,"y":253.236065,"type":"corner"},"e":[0.445,0.05,0.55,0.95]},{"t":1500,"v":{"x":263.144009,"y":203.167399,"type":"corner"}},{"t":3000,"v":{"x":263.144009,"y":253.236065,"type":"corner","start":{"x":263.144009,"y":253.236065},"end":{"x":263.144009,"y":253.236065}},"e":[0.42,0,0.58,1]}]}}}},"s":"MADA1Y2M0NmJJYWRiZWAJiYWFiZFZiMmI4YjcE2YjgzQzdjNzk3OTc5JNzU2YmFkYjJiYmFlYAWNCYmRiMmI4Yjc2YjIgzN2E3NTZiYjJiZGFXlYmJhYWJkYjJMYjhiBN2JjNmI4Mzc5NzU2YEmFmYjJiNWI1NmI4MzKdhNzU2YmFhYjVXYmRXhZVRiYmI3YWFiZGFlCNmI4M1JhZmFhYjViYH2FlNzU2YlliY2I5YWHVhZWFkQTZiTTgzUzdWhNzU2YmFmYjliYzZiOODM3Zjc5YzY/"}],"options":"MKDAxMDg4MmY4MEU4MTUZlN2Y4MTJmNDcyZjcS5N2M2ZTcxMmY4YQ|"},'__SVGATOR_PLAYER__',window,document)
]]></script>
</svg>
